<svg width="32" height="32" viewBox="0 0 32 32" fill="none" xmlns="http://www.w3.org/2000/svg">
<path d="M8.90001 9C8.90001 7.8402 9.84021 6.9 11 6.9C11.2471 6.9 11.4823 6.94228 11.7001 7.01926C12.1687 7.1849 12.6829 6.93927 12.8486 6.47063C13.0142 6.00198 12.7686 5.48779 12.2999 5.32215C11.8922 5.17802 11.4542 5.1 11 5.1C8.8461 5.1 7.10001 6.84609 7.10001 9C7.10001 11.1539 8.8461 12.9 11 12.9C11.57 12.9 12.1138 12.7771 12.6042 12.5556C13.0572 12.351 13.2585 11.8179 13.0539 11.3649C12.8493 10.9119 12.3162 10.7106 11.8632 10.9152C11.601 11.0336 11.3095 11.1 11 11.1C9.84021 11.1 8.90001 10.1598 8.90001 9Z" fill="white"/>
<path fill-rule="evenodd" clip-rule="evenodd" d="M19.5 19.1C18.7268 19.1 18.1 19.7268 18.1 20.5V26.0657C18.1 27.1839 19.3462 27.8509 20.2766 27.2306L22.2725 25.9H26.5C27.2732 25.9 27.9 25.2732 27.9 24.5V20.5C27.9 19.7268 27.2732 19.1 26.5 19.1H19.5ZM19.9 25.3183V20.9H26.1V24.1H22.1514C21.875 24.1 21.6048 24.1818 21.3748 24.3351L19.9 25.3183Z" fill="white"/>
<path d="M18.4141 9.39062C18.3511 9.31592 18.2503 9.22716 18.1737 9.1569C17.6146 8.64411 17.0178 8.59191 16.5707 8.55281C16.5069 8.54723 16.4462 8.54192 16.3891 8.53558C16.0814 8.50142 15.9359 8.32679 15.904 8.12207C15.8944 8.0602 15.9021 7.9958 15.929 7.92868C15.9574 7.85775 16.0028 7.79574 16.0482 7.75408C16.1353 7.67424 16.3066 7.58851 16.5045 7.58751C16.5353 7.58735 16.5665 7.58923 16.5982 7.59337C16.7028 7.60708 16.7973 7.64815 16.8705 7.69228C16.9056 7.71345 16.9308 7.73234 16.9439 7.74278L16.9506 7.74832C17.3075 8.08223 17.8676 8.07051 18.2101 7.71875C18.5569 7.36262 18.5493 6.79283 18.1932 6.44607L18.1923 6.44522L18.1914 6.44434L18.1894 6.44248L18.1852 6.4384L18.175 6.42878C18.1674 6.42176 18.1584 6.4135 18.1479 6.40417C18.1269 6.38554 18.0999 6.36247 18.0672 6.33632C18.0021 6.2843 17.9122 6.21848 17.7997 6.15069C17.6914 6.0854 17.5572 6.01534 17.4 5.95438V5C17.4 4.50294 16.9971 4.1 16.5 4.1C16.0029 4.1 15.6 4.50294 15.6 5V5.95673C15.3019 6.07137 15.0398 6.2365 14.8314 6.42771C14.3726 6.84863 13.9961 7.56861 14.1254 8.39909C14.2913 9.46418 15.1347 10.2074 16.1905 10.3246C16.2696 10.3334 16.3435 10.3407 16.409 10.3472L16.4213 10.3484C16.4833 10.3545 16.5356 10.3597 16.5851 10.3651C16.6918 10.3769 16.7555 10.387 16.8019 10.3979C16.8427 10.4075 16.863 10.4162 16.8764 10.4231C16.8899 10.4301 16.9155 10.4454 16.957 10.4834C17.0272 10.5479 17.0601 10.6081 17.0779 10.6628L17.0818 10.6755C17.4478 11.0416 18.0413 11.0416 18.4073 10.6755C18.7733 10.3095 18.7801 9.75665 18.4141 9.39062Z" fill="white"/>
<path d="M27.7071 5.70711C28.0976 5.31658 28.0976 4.68342 27.7071 4.29289C27.3166 3.90237 26.6834 3.90237 26.2929 4.29289L9.58579 21H6.10002C6.56329 18.7178 8.45703 17.25 10.5015 17.0057C11.0354 16.8643 11.3535 16.3168 11.2121 15.783C11.0706 15.2491 10.5232 14.931 9.98931 15.0724C6.87891 15.5078 4 18.2139 4 22C4 22.5523 4.44772 23 5 23H7.58579L4.29289 26.2929C3.90237 26.6834 3.90237 27.3166 4.29289 27.7071C4.68342 28.0976 5.31658 28.0976 5.70711 27.7071L27.7071 5.70711Z" fill="white"/>
</svg>
