<svg width="32" height="32" viewBox="0 0 32 32" fill="none" xmlns="http://www.w3.org/2000/svg">
<path d="M9 9C9 7.89543 9.89543 7 11 7C11.5129 7 11.9786 7.19174 12.3331 7.50903C12.7446 7.87735 13.3768 7.84233 13.7451 7.43081C14.1135 7.01928 14.0784 6.38708 13.6669 6.01876C12.9599 5.38597 12.0238 5 11 5C8.79086 5 7 6.79086 7 9C7 11.2091 8.79086 13 11 13C11.5845 13 12.1423 12.874 12.6454 12.6467C13.1487 12.4194 13.3724 11.827 13.145 11.3237C12.9177 10.8204 12.3254 10.5967 11.822 10.8241C11.5725 10.9368 11.295 11 11 11C9.89543 11 9 10.1046 9 9Z" fill="white"/>
<path fill-rule="evenodd" clip-rule="evenodd" d="M19.5 19C18.6716 19 18 19.6716 18 20.5V26.0657C18 27.2638 19.3352 27.9784 20.3321 27.3138L22.3028 26H26.5C27.3284 26 28 25.3284 28 24.5V20.5C28 19.6716 27.3284 19 26.5 19H19.5ZM20 21H26V24H22.1514C21.8552 24 21.5657 24.0877 21.3193 24.2519L20 25.1315V21Z" fill="white"/>
<path d="M6.10002 21C6.56329 18.7178 8.58104 17 11 17C12.2812 17 13.4478 17.4806 14.3331 18.2729C14.7446 18.6412 15.3768 18.6062 15.7451 18.1947C16.1135 17.7832 16.0784 17.151 15.6669 16.7827C14.4291 15.6748 12.7922 15 11 15C7.13401 15 4 18.134 4 22C4 22.5523 4.44772 23 5 23H15C15.5523 23 16 22.5523 16 22C16 21.4477 15.5523 21 15 21H6.10002Z" fill="white"/>
<path d="M21.7071 8.70711C22.0976 8.31658 22.0976 7.68342 21.7071 7.29289C21.3166 6.90237 20.6834 6.90237 20.2929 7.29289L17.9062 9.67962L16.6 8.7C16.1582 8.36863 15.5314 8.45817 15.2 8.9C14.8686 9.34183 14.9582 9.96863 15.4 10.3L17.4 11.8C17.7981 12.0986 18.3552 12.059 18.7071 11.7071L21.7071 8.70711Z" fill="white"/>
</svg>
