<svg width="32" height="32" viewBox="0 0 32 32" fill="none" xmlns="http://www.w3.org/2000/svg">
<path fill-rule="evenodd" clip-rule="evenodd" d="M19.5004 19C18.672 19 18.0004 19.6716 18.0004 20.5V26.0658C18.0004 27.2638 19.3356 27.9784 20.3324 27.3138L22.3032 26H26.5004C27.3288 26 28.0004 25.3284 28.0004 24.5V20.5C28.0004 19.6716 27.3288 19 26.5004 19H19.5004ZM20.0004 25.1315V21H26.0004V24H22.1518C21.8556 24 21.5661 24.0877 21.3197 24.2519L20.0004 25.1315Z" fill="white"/>
<path fill-rule="evenodd" clip-rule="evenodd" d="M27.7075 4.29291C28.098 4.68343 28.098 5.3166 27.7075 5.70712L5.7075 27.7071C5.31698 28.0976 4.68381 28.0976 4.29329 27.7071C3.90277 27.3166 3.90277 26.6834 4.29329 26.2929L26.2933 4.29291C26.6838 3.90238 27.317 3.90238 27.7075 4.29291Z" fill="white"/>
<path d="M15.996 8.83984C14.8831 8.11235 13.8224 7.27547 12.9978 6.49781C12.1611 7.27884 11.0781 8.11733 9.94645 8.84436C8.71215 9.63732 7.31231 10.368 6.02896 10.7142C5.94724 12.0205 5.96608 14.3641 6.6638 16.6752C6.89357 17.4363 7.20574 18.2117 7.60644 18.9244C7.92227 19.457 7.8322 20.0272 7.37133 20.3582C6.91047 20.6892 6.26852 20.5839 5.93751 20.1231C5.372 19.216 4.93983 18.2309 4.65342 17.2822C3.67443 14.0394 3.87237 10.8086 4.01297 9.71042C4.07357 9.23709 4.44573 8.86415 4.91893 8.80255C5.93016 8.67091 7.36413 8.00732 8.81138 7.07755C10.2357 6.1625 11.515 5.09257 12.2144 4.30353C12.4137 4.07871 12.6997 3.95001 13.0002 3.95001C13.3006 3.95001 13.5866 4.07871 13.7859 4.30353C14.4901 5.098 15.7484 6.1691 17.1451 7.08207C17.5202 7.32731 18.1176 7.69533 18.2621 7.78127C18.7201 8.14092 18.8359 8.79673 18.4763 9.25473C18.1166 9.71273 17.4223 9.69533 16.934 9.40236C16.7465 9.30861 16.2972 9.0367 15.996 8.83984Z" fill="white"/>
</svg>
