<svg width="32" height="32" viewBox="0 0 32 32" fill="none" xmlns="http://www.w3.org/2000/svg">
<path d="M9 9C9 7.89543 9.89543 7 11 7C11.5129 7 11.9786 7.19174 12.3331 7.50903C12.7446 7.87735 13.3768 7.84233 13.7451 7.43081C14.1135 7.01928 14.0784 6.38708 13.6669 6.01876C12.9599 5.38597 12.0238 5 11 5C8.79086 5 7 6.79086 7 9C7 11.2091 8.79086 13 11 13C11.5845 13 12.1423 12.874 12.6454 12.6467C13.1487 12.4194 13.3724 11.827 13.145 11.3237C12.9177 10.8204 12.3254 10.5967 11.822 10.8241C11.5725 10.9368 11.295 11 11 11C9.89543 11 9 10.1046 9 9Z" fill="white"/>
<path d="M27.7071 5.70711C28.0976 5.31658 28.0976 4.68342 27.7071 4.29289C27.3166 3.90237 26.6834 3.90237 26.2929 4.29289L9.58579 21H6.10002C6.56329 18.7178 8.45703 17.25 10.5015 17.0057C11.0354 16.8643 11.3535 16.3168 11.2121 15.783C11.0706 15.2491 10.5232 14.931 9.98931 15.0724C6.87891 15.5078 4 18.2139 4 22C4 22.5523 4.44772 23 5 23H7.58579L4.29289 26.2929C3.90237 26.6834 3.90237 27.3166 4.29289 27.7071C4.68342 28.0976 5.31658 28.0976 5.70711 27.7071L27.7071 5.70711Z" fill="white"/>
<path fill-rule="evenodd" clip-rule="evenodd" d="M19.5 19C18.6716 19 18 19.6716 18 20.5V26.0657C18 27.2638 19.3352 27.9784 20.3321 27.3138L22.3028 26H26.5C27.3284 26 28 25.3284 28 24.5V20.5C28 19.6716 27.3284 19 26.5 19H19.5ZM20 21H26V24H22.1514C21.8552 24 21.5657 24.0877 21.3193 24.2519L20 25.1315V21Z" fill="white"/>
</svg>
