<svg width="32" height="32" viewBox="0 0 32 32" fill="none" xmlns="http://www.w3.org/2000/svg">
<path fill-rule="evenodd" clip-rule="evenodd" d="M19.5 19C18.6716 19 18 19.6716 18 20.5V26.0657C18 27.2638 19.3352 27.9784 20.3321 27.3138L22.3028 26H26.5C27.3284 26 28 25.3284 28 24.5V20.5C28 19.6716 27.3284 19 26.5 19H19.5ZM20 25.1315V21H26V24H22.1514C21.8552 24 21.5657 24.0877 21.3193 24.2519L20 25.1315Z" fill="white"/>
<path d="M27.7071 5.70711C28.0976 5.31658 28.0976 4.68342 27.7071 4.29289C27.3166 3.90237 26.6834 3.90237 26.2929 4.29289L16 14.5858V9C16 8.44772 15.5523 8 15 8C14.4477 8 14 8.44772 14 9V15H10C9.44772 15 9 15.4477 9 16C9 16.5523 9.44772 17 10 17H13.5858L4.29289 26.2929C3.90237 26.6834 3.90237 27.3166 4.29289 27.7071C4.68342 28.0976 5.31658 28.0976 5.70711 27.7071L27.7071 5.70711Z" fill="white"/>
<path d="M6 14.5C6 9.80558 9.80558 6 14.5 6C16.1986 6 17.7808 6.49823 19.1085 7.35651C19.5446 7.6954 20.2205 7.63792 20.5594 7.20183C20.8983 6.76574 20.78 6.11411 20.3439 5.77522C18.6734 4.65407 16.6631 4 14.5 4C8.70101 4 4 8.70101 4 14.5C4 16.6273 4.65291 18.6407 5.74032 20.2947C6.03609 20.7611 6.65396 20.8994 7.12037 20.6036C7.58678 20.3079 7.72512 19.69 7.42935 19.2236C6.53611 17.8783 6 16.2359 6 14.5Z" fill="white"/>
</svg>
