<svg width="32" height="32" viewBox="0 0 32 32" fill="none" xmlns="http://www.w3.org/2000/svg">
<path d="M13.5 6C9.35786 6 6 9.35786 6 13.5C6 17.6421 9.35786 21 13.5 21C14.0523 21 14.5 21.4477 14.5 22C14.5 22.5523 14.0523 23 13.5 23C8.25329 23 4 18.7467 4 13.5C4 8.25329 8.25329 4 13.5 4C18.7467 4 23 8.25329 23 13.5C23 14.0523 22.5523 14.5 22 14.5C21.4477 14.5 21 14.0523 21 13.5C21 9.35786 17.6421 6 13.5 6Z" fill="white"/>
<path fill-rule="evenodd" clip-rule="evenodd" d="M18 20.5C18 19.6716 18.6716 19 19.5 19H26.5C27.3284 19 28 19.6716 28 20.5V24.5C28 25.3284 27.3284 26 26.5 26H22.3028L20.3321 27.3138C19.3352 27.9784 18 27.2638 18 26.0657V20.5ZM20 21V25.1315L21.3193 24.2519C21.5657 24.0877 21.8552 24 22.1514 24H26V21H20Z" fill="white"/>
<path d="M10.75 12.5C11.4404 12.5 12 11.9404 12 11.25C12 10.5596 11.4404 10 10.75 10C10.0596 10 9.5 10.5596 9.5 11.25C9.5 11.9404 10.0596 12.5 10.75 12.5Z" fill="white"/>
<path d="M17.5 11.25C17.5 11.9404 16.9404 12.5 16.25 12.5C15.5596 12.5 15 11.9404 15 11.25C15 10.5596 15.5596 10 16.25 10C16.9404 10 17.5 10.5596 17.5 11.25Z" fill="white"/>
<path d="M10.2851 15.3806C9.94306 14.947 9.31426 14.8728 8.88065 15.2149C8.44704 15.5569 8.37283 16.1857 8.71489 16.6194C9.54995 17.6779 11.0881 19 13.5 19C15.9119 19 17.4501 17.6779 18.2851 16.6194C18.6272 16.1857 18.553 15.5569 18.1194 15.2149C17.6857 14.8728 17.0569 14.947 16.7149 15.3806C16.1057 16.1529 15.0885 17 13.5 17C11.9115 17 10.8943 16.1529 10.2851 15.3806Z" fill="white"/>
</svg>
