<svg width="32" height="32" viewBox="0 0 32 32" fill="none" xmlns="http://www.w3.org/2000/svg">
<path fill-rule="evenodd" clip-rule="evenodd" d="M18.0004 20.5C18.0004 19.6716 18.672 19 19.5004 19H26.5004C27.3288 19 28.0004 19.6716 28.0004 20.5V24.5C28.0004 25.3284 27.3288 26 26.5004 26H22.3032L20.3324 27.3138C19.3356 27.9784 18.0004 27.2638 18.0004 26.0658V20.5ZM20.0004 21V25.1315L21.3197 24.2519C21.5661 24.0877 21.8556 24 22.1518 24H26.0004V21H20.0004Z" fill="white"/>
<path d="M13.7859 4.30353C13.5866 4.07871 13.3006 3.95001 13.0002 3.95001C12.6997 3.95001 12.4137 4.07871 12.2144 4.30353C11.515 5.09257 10.2357 6.1625 8.81138 7.07755C7.36413 8.00732 5.93016 8.67091 4.91893 8.80255C4.44573 8.86415 4.07357 9.23709 4.01297 9.71042C3.87237 10.8086 3.67443 14.0394 4.65342 17.2822C5.64451 20.565 8.21438 23.9516 13.0004 25C13.8578 24.8122 14.6839 24.5215 15.3938 24.1977C15.8856 23.9964 16.1211 23.4346 15.9199 22.9428C15.7187 22.4511 15.098 22.2431 14.6063 22.4444C14.1183 22.6706 13.5846 22.8582 13.0004 23C9.34497 22.1122 7.49707 19.4353 6.6638 16.6752C5.96608 14.3641 5.94724 12.0205 6.02896 10.7142C7.31231 10.368 8.71215 9.63732 9.94645 8.84436C11.0781 8.11733 12.1611 7.27884 12.9978 6.49781C13.8224 7.27547 14.8831 8.11235 15.996 8.83984C17.2094 9.633 18.7376 10.3712 20.016 10.7188C20.0801 11.8272 19.9558 13.6842 19.4768 15.6372C19.3272 16.1911 19.6554 16.8221 20.21 16.9695C20.7646 17.1168 21.3442 16.7501 21.4939 16.1961C22.1618 13.3462 22.0113 10.6918 21.8856 9.71042C21.825 9.23709 21.4529 8.86415 20.9797 8.80255C19.9725 8.67143 18.566 8.01089 17.1451 7.08207C15.7484 6.1691 14.4901 5.098 13.7859 4.30353Z" fill="white"/>
</svg>
