<svg width="32" height="32" viewBox="0 0 32 32" fill="none" xmlns="http://www.w3.org/2000/svg">
<path fill-rule="evenodd" clip-rule="evenodd" d="M18 20.5C18 19.6716 18.6716 19 19.5 19H26.5C27.3284 19 28 19.6716 28 20.5V24.5C28 25.3284 27.3284 26 26.5 26H22.3028L20.3321 27.3138C19.3352 27.9784 18 27.2638 18 26.0657V20.5ZM20 21V25.1315L21.3193 24.2519C21.5657 24.0877 21.8552 24 22.1514 24H26V21H20Z" fill="white"/>
<path d="M12 11.25C12 11.9404 11.4404 12.5 10.75 12.5C10.0596 12.5 9.5 11.9404 9.5 11.25C9.5 10.5596 10.0596 10 10.75 10C11.4404 10 12 10.5596 12 11.25Z" fill="white"/>
<path d="M17.5 11.25C17.5 11.9404 16.9404 12.5 16.25 12.5C15.5596 12.5 15 11.9404 15 11.25C15 10.5596 15.5596 10 16.25 10C16.9404 10 17.5 10.5596 17.5 11.25Z" fill="white"/>
<path d="M27.7071 5.70711C28.0976 5.31658 28.0976 4.68342 27.7071 4.29289C27.3166 3.90237 26.6834 3.90237 26.2929 4.29289L13.5866 16.9992C13.5579 16.9997 13.5291 17 13.5 17C11.9115 17 10.8943 16.1529 10.2851 15.3806C9.94307 14.947 9.31427 14.8728 8.88066 15.2149C8.44705 15.5569 8.37284 16.1857 8.7149 16.6193C9.33646 17.4073 10.3475 18.3412 11.8185 18.7672L4.29289 26.2929C3.90237 26.6834 3.90237 27.3166 4.29289 27.7071C4.68342 28.0976 5.31658 28.0976 5.70711 27.7071L27.7071 5.70711Z" fill="white"/>
<path d="M6 13.5C6 9.35786 9.35786 6 13.5 6C15.4061 6 17.146 6.71103 18.4692 7.88231C18.8789 8.25269 19.5112 8.22082 19.8816 7.81113C20.252 7.40145 20.2201 6.76909 19.8104 6.39871C18.1372 4.92686 15.9036 4 13.5 4C8.25329 4 4 8.25329 4 13.5C4 15.9184 4.92623 18.1507 6.41437 19.8277C6.77648 20.2448 7.40808 20.2892 7.82508 19.9271C8.24209 19.565 8.28659 18.9334 7.92447 18.5164C6.74986 17.1925 6 15.4091 6 13.5Z" fill="white"/>
</svg>
