<svg width="32" height="32" viewBox="0 0 32 32" fill="none" xmlns="http://www.w3.org/2000/svg">
<path fill-rule="evenodd" clip-rule="evenodd" d="M16.4996 4.10001C16.9967 4.10001 17.3996 4.50295 17.3996 5.00001V5.95439C17.5568 6.01535 17.691 6.08541 17.7993 6.15069C17.9118 6.21849 18.0017 6.2843 18.0668 6.33633C18.0995 6.36248 18.1265 6.38554 18.1475 6.40418C18.158 6.41351 18.167 6.42176 18.1746 6.42879L18.1848 6.4384L18.1891 6.44249L18.191 6.44435L18.1919 6.44523L18.1848 6.4384L18.1928 6.44608C18.5489 6.79283 18.5565 7.36263 18.2097 7.71876C17.8672 8.07051 17.3071 8.08224 16.9502 7.74833C16.9502 7.74833 16.9466 7.74525 16.9435 7.74278C16.9304 7.73234 16.9052 7.71345 16.8701 7.69229C16.7969 7.64816 16.7024 7.60708 16.5978 7.59338C16.5661 7.58924 16.5349 7.58736 16.5042 7.58751C16.3062 7.58851 16.1349 7.67425 16.0479 7.75408C16.0024 7.79575 15.957 7.85776 15.9286 7.92869C15.9017 7.9958 15.894 8.06021 15.9036 8.12208C15.9355 8.32679 16.081 8.50143 16.3887 8.53559C16.4458 8.54193 16.5065 8.54724 16.5703 8.55281C17.0174 8.59192 17.6142 8.64412 18.1733 9.15691C18.7977 9.72963 18.9531 10.4672 18.8844 11.0886C18.8268 11.609 18.5559 12.0358 18.3168 12.3174C18.0825 12.5932 17.7727 12.8535 17.4701 12.985C17.4466 12.9952 17.4231 13.005 17.3996 13.0145V14C17.3996 14.4971 16.9967 14.9 16.4996 14.9C16.0026 14.9 15.5996 14.4971 15.5996 14V13.0217C15.578 13.0137 15.5565 13.0055 15.5353 12.9971C15.1193 12.8336 14.79 12.5044 14.6164 12.3149C14.516 12.2053 14.4335 12.1036 14.3758 12.0292C14.3468 11.9916 14.3233 11.96 14.3063 11.9367L14.2856 11.908L14.279 11.8987L14.2766 11.8953L14.2751 11.8931C13.9917 11.4848 14.0928 10.9238 14.5012 10.6404C14.9088 10.3574 15.4684 10.4579 15.7522 10.8645L15.7606 10.876C15.7685 10.8869 15.7816 10.9045 15.799 10.927C15.8344 10.9727 15.8847 11.0347 15.9438 11.0991C16.004 11.1649 16.0646 11.2238 16.1199 11.2687C16.1706 11.3099 16.1964 11.3229 16.1964 11.3229L16.1938 11.3219C16.3446 11.3812 16.4365 11.3956 16.5014 11.3957C16.556 11.3958 16.6293 11.3861 16.7402 11.3395C16.7458 11.3359 16.7638 11.3245 16.7927 11.3013C16.8391 11.2641 16.8934 11.2127 16.9448 11.1521C17.0612 11.0151 17.0924 10.9165 17.0953 10.8907C17.1055 10.7983 17.097 10.7224 17.0775 10.6628C17.0597 10.6081 17.0269 10.5479 16.9566 10.4834C16.9151 10.4454 16.8895 10.4302 16.876 10.4231C16.8626 10.4162 16.8423 10.4075 16.8015 10.3979C16.7551 10.387 16.6914 10.3769 16.5847 10.3651C16.5353 10.3597 16.4829 10.3545 16.421 10.3484L16.4086 10.3472C16.3431 10.3407 16.2692 10.3334 16.1901 10.3246C15.1343 10.2074 14.2909 9.46419 14.125 8.39909C13.9957 7.56862 14.3722 6.84863 14.831 6.42772C15.0394 6.23651 15.3015 6.07138 15.5996 5.95674V5.00001C15.5996 4.50295 16.0026 4.10001 16.4996 4.10001ZM10.9996 6.90001C9.83981 6.90001 8.89961 7.84021 8.89961 9.00001C8.89961 10.1598 9.83981 11.1 10.9996 11.1C11.3091 11.1 11.6006 11.0336 11.8628 10.9152C12.3158 10.7106 12.8489 10.9119 13.0535 11.3649C13.2581 11.8179 13.0568 12.351 12.6038 12.5556C12.1134 12.7771 11.5696 12.9 10.9996 12.9C8.8457 12.9 7.09961 11.1539 7.09961 9.00001C7.09961 6.8461 8.8457 5.10001 10.9996 5.10001C11.4538 5.10001 11.8918 5.17803 12.2995 5.32216C12.7682 5.4878 13.0138 6.00199 12.8482 6.47063C12.6825 6.93928 12.1683 7.18491 11.6997 7.01927C11.4819 6.94229 11.2467 6.90001 10.9996 6.90001ZM5.97877 21.1C6.40385 18.7126 8.49005 16.9 10.9996 16.9C12.3064 16.9 13.4965 17.3903 14.3994 18.1984C14.7698 18.5299 15.3387 18.4984 15.6702 18.128C16.0017 17.7576 15.9702 17.1887 15.5998 16.8572C14.3797 15.7651 12.7662 15.1 10.9996 15.1C7.18884 15.1 4.09961 18.1892 4.09961 22C4.09961 22.4971 4.50255 22.9 4.99961 22.9H14.9996C15.4967 22.9 15.8996 22.4971 15.8996 22C15.8996 21.5029 15.4967 21.1 14.9996 21.1H5.97877ZM19.8996 20.9V25.3183L21.3744 24.3351C21.6044 24.1818 21.8746 24.1 22.151 24.1H26.0996V20.9H19.8996ZM18.0996 20.5C18.0996 19.7268 18.7264 19.1 19.4996 19.1H26.4996C27.2728 19.1 27.8996 19.7268 27.8996 20.5V24.5C27.8996 25.2732 27.2728 25.9 26.4996 25.9H22.2721L20.2762 27.2306C19.3458 27.8509 18.0996 27.1839 18.0996 26.0657V20.5Z" fill="white"/>
</svg>
