<svg width="32" height="32" viewBox="0 0 32 32" fill="none" xmlns="http://www.w3.org/2000/svg">
<path d="M6 14.5C6 9.80558 9.80558 6 14.5 6C19.1944 6 23 9.80558 23 14.5C23 14.9577 22.9639 15.4064 22.8946 15.8433C22.8081 16.3888 23.1801 16.9011 23.7256 16.9877C24.2711 17.0742 24.7834 16.7021 24.8699 16.1567C24.9556 15.6164 25 15.0631 25 14.5C25 8.70101 20.299 4 14.5 4C8.70101 4 4 8.70101 4 14.5C4 20.299 8.70101 25 14.5 25C14.685 25 14.869 24.9952 15.0518 24.9857C15.6033 24.9571 16.0273 24.4868 15.9987 23.9353C15.9701 23.3837 15.4998 22.9598 14.9482 22.9884C14.7999 22.9961 14.6504 23 14.5 23C9.80558 23 6 19.1944 6 14.5Z" fill="white"/>
<path d="M15 8C15.5523 8 16 8.44772 16 9V16C16 16.5523 15.5523 17 15 17H10C9.44772 17 9 16.5523 9 16C9 15.4477 9.44772 15 10 15H14V9C14 8.44772 14.4477 8 15 8Z" fill="white"/>
<path fill-rule="evenodd" clip-rule="evenodd" d="M18 20.5C18 19.6716 18.6716 19 19.5 19H26.5C27.3284 19 28 19.6716 28 20.5V24.5C28 25.3284 27.3284 26 26.5 26H22.3028L20.3321 27.3138C19.3352 27.9784 18 27.2638 18 26.0657V20.5ZM20 21V25.1315L21.3193 24.2519C21.5657 24.0877 21.8552 24 22.1514 24H26V21H20Z" fill="white"/>
</svg>
