<svg width="32" height="32" viewBox="0 0 32 32" fill="none" xmlns="http://www.w3.org/2000/svg">
<path fill-rule="evenodd" clip-rule="evenodd" d="M20 19H10.3673L6.67573 22.3839C6.03432 22.9719 5 22.5169 5 21.6467V8C5 6.34315 6.34315 5 8 5H20C21.6569 5 23 6.34315 23 8V16C23 17.6569 21.6569 19 20 19ZM9.58929 17L7 19.3735V8C7 7.44772 7.44772 7 8 7H20C20.5523 7 21 7.44772 21 8V16C21 16.5523 20.5523 17 20 17H9.58929Z" fill="white"/>
<path d="M23.5 22.0858L21.7071 20.2929C21.3166 19.9024 20.6834 19.9024 20.2929 20.2929C19.9024 20.6834 19.9024 21.3166 20.2929 21.7071L22.0858 23.5L20.2929 25.2929C19.9024 25.6834 19.9024 26.3166 20.2929 26.7071C20.6834 27.0976 21.3166 27.0976 21.7071 26.7071L23.5 24.9142L25.2929 26.7071C25.6834 27.0976 26.3166 27.0976 26.7071 26.7071C27.0976 26.3166 27.0976 25.6834 26.7071 25.2929L24.9142 23.5L26.7071 21.7071C27.0976 21.3166 27.0976 20.6834 26.7071 20.2929C26.3166 19.9024 25.6834 19.9024 25.2929 20.2929L23.5 22.0858Z" fill="white"/>
</svg>
