<svg width="32" height="32" viewBox="0 0 32 32" fill="none" xmlns="http://www.w3.org/2000/svg">
<path fill-rule="evenodd" clip-rule="evenodd" d="M25 5C26.1046 5 27 5.89543 27 7V16C27 16.5523 26.5523 17 26 17C25.4477 17 25 16.5523 25 16H21C20.4477 16 20 15.5523 20 15L20 7H12L12 18H19C19.5523 18 20 18.4477 20 19C20 19.5523 19.5523 20 19 20H7C5.89543 20 5 19.1046 5 18V7C5 5.89543 5.89543 5 7 5H25ZM25 11V14H22V11H25ZM22 9H25V7L22 7L22 9ZM10 14V11H7V14H10ZM10 16H7V18H10V16ZM10 7L10 9H7V7H10Z" fill="white"/>
<path d="M24 19C24 18.4477 23.5523 18 23 18C22.4477 18 22 18.4477 22 19V22H19C18.4477 22 18 22.4477 18 23C18 23.5523 18.4477 24 19 24H22V27C22 27.5523 22.4477 28 23 28C23.5523 28 24 27.5523 24 27V24H27C27.5523 24 28 23.5523 28 23C28 22.4477 27.5523 22 27 22H24V19Z" fill="white"/>
</svg>
