<svg width="32" height="32" viewBox="0 0 32 32" fill="none" xmlns="http://www.w3.org/2000/svg">
<path d="M8 12.5L8 20.1958L13.9146 16.4991C14.5892 16.0775 15.4497 16.0958 16.1058 16.5458L17.5656 17.547C18.0211 17.8594 18.1371 18.4818 17.8247 18.9373C17.5123 19.3927 16.8899 19.5087 16.4344 19.1964L14.9746 18.1951L9.06 21.8918C7.7279 22.7243 6 21.7666 6 20.1958V12.5C6 11.8705 6.29639 11.2777 6.8 10.9L13.8 5.65C14.5111 5.11667 15.4889 5.11667 16.2 5.65L23.2 10.9C23.7036 11.2777 24 11.8705 24 12.5V14C24 14.5523 23.5523 15 23 15C22.4477 15 22 14.5523 22 14V12.5L15 7.25L8 12.5Z" fill="white"/>
<path d="M24 18C24 17.4477 23.5523 17 23 17C22.4477 17 22 17.4477 22 18V21H19C18.4477 21 18 21.4477 18 22C18 22.5523 18.4477 23 19 23H22V26C22 26.5523 22.4477 27 23 27C23.5523 27 24 26.5523 24 26V23H27C27.5523 23 28 22.5523 28 22C28 21.4477 27.5523 21 27 21H24V18Z" fill="white"/>
</svg>
