<svg width="32" height="32" viewBox="0 0 32 32" fill="none" xmlns="http://www.w3.org/2000/svg">
<path d="M7 8L7 9C7 9.55228 7.44772 10 8 10C8.55228 10 9 9.55228 9 9L11 9C11 9.55228 11.4477 10 12 10C12.5523 10 13 9.55228 13 9L15 9C15 9.55228 15.4477 10 16 10C16.5523 10 17 9.55228 17 9L19 9C19 9.55228 19.4477 10 20 10C20.5523 10 21 9.55228 21 9L23 9C23 9.55228 23.4477 10 24 10C24.5523 10 25 9.55228 25 9V8C25 7.44772 24.5523 7 24 7H8C7.44772 7 7 7.44772 7 8Z" fill="white"/>
<path d="M16 15C16.5523 15 17 15.4477 17 16V17H18C18.5523 17 19 17.4477 19 18C19 18.5523 18.5523 19 18 19H17V20C17 20.5523 16.5523 21 16 21C15.4477 21 15 20.5523 15 20V19H14C13.4477 19 13 18.5523 13 18C13 17.4477 13.4477 17 14 17H15V16C15 15.4477 15.4477 15 16 15Z" fill="white"/>
<path fill-rule="evenodd" clip-rule="evenodd" d="M7 14C6.44772 14 6 13.5523 6 13C6 12.4477 6.44772 12 7 12H25C25.5523 12 26 12.4477 26 13C26 13.5523 25.5523 14 25 14V17C25.5523 17 26 17.4477 26 18C26 18.5523 25.5523 19 25 19V22C25.5523 22 26 22.4477 26 23C26 23.5523 25.5523 24 25 24H7C6.44772 24 6 23.5523 6 23C6 22.4477 6.44772 22 7 22V19C6.44772 19 6 18.5523 6 18C6 17.4477 6.44772 17 7 17V14ZM9 14H23V22H9V14Z" fill="white"/>
</svg>
