<svg width="32" height="32" viewBox="0 0 32 32" fill="none" xmlns="http://www.w3.org/2000/svg">
<path fill-rule="evenodd" clip-rule="evenodd" d="M24.7446 7.25535L7.69382 13.222L14.3875 16.1979L17.5164 13.0694C17.9069 12.6789 18.5401 12.6789 18.9306 13.0695C19.3211 13.46 19.321 14.0932 18.9305 14.4837L15.8017 17.6121L18.7776 24.3064L24.7446 7.25535ZM24.8853 5.08721C25.1681 4.98963 25.4727 4.97357 25.7642 5.04087C26.0557 5.10817 26.3223 5.25611 26.5338 5.46781C26.7452 5.6795 26.8927 5.94641 26.9596 6.23803C27.0265 6.52965 27.01 6.8342 26.912 7.11689L26.9111 7.11956L20.3275 25.9323C20.2219 26.234 20.0279 26.4972 19.771 26.6873C19.514 26.8774 19.2059 26.9859 18.8866 26.9987C18.5673 27.0116 18.2515 26.9282 17.9801 26.7593C17.709 26.5907 17.4948 26.3445 17.3652 26.0527L13.8514 18.1482L5.94451 14.633C5.65332 14.503 5.40778 14.2887 5.23963 14.0177C5.07148 13.7467 4.98845 13.4315 5.00129 13.1128C5.01413 12.7942 5.12224 12.4867 5.31164 12.2301C5.50104 11.9735 5.76302 11.7796 6.06373 11.6735L6.06633 11.6726L24.8812 5.08864L24.8853 5.08721Z" fill="white"/>
</svg>
