<svg width="80" height="32" viewBox="0 0 80 32" fill="none" xmlns="http://www.w3.org/2000/svg">
<g clip-path="url(#clip0_1949_35839)">
<path fill-rule="evenodd" clip-rule="evenodd" d="M25 16.0008C25 12.1348 21.866 9.00076 18 9.00076H14C10.134 9.00076 7 12.1348 7 16.0008C7 19.8668 10.134 23.0008 14 23.0008H18C21.866 23.0008 25 19.8668 25 16.0008ZM18 11.0008C20.7614 11.0008 23 13.2393 23 16.0008C23 18.7622 20.7614 21.0008 18 21.0008H14C11.2386 21.0008 9 18.7622 9 16.0008C9 13.2393 11.2386 11.0008 14 11.0008H18Z" fill="white"/>
<path d="M15 16.0008C15 17.6576 16.3431 19.0008 18 19.0008C19.6569 19.0008 21 17.6576 21 16.0008C21 14.3439 19.6569 13.0008 18 13.0008C16.3431 13.0008 15 14.3439 15 16.0008Z" fill="white"/>
<path fill-rule="evenodd" clip-rule="evenodd" d="M55 16C55 19.866 58.134 23 62 23H66C69.866 23 73 19.866 73 16C73 12.134 69.866 9 66 9H62C58.134 9 55 12.134 55 16ZM62 20C59.7909 20 58 18.2091 58 16C58 13.7909 59.7909 12 62 12C64.2091 12 66 13.7909 66 16C66 18.2091 64.2091 20 62 20Z" fill="white"/>
</g>
<rect x="0.5" y="0.5" width="79" height="31" rx="4.5" stroke="#9747FF" stroke-dasharray="10 5"/>
<defs>
<clipPath id="clip0_1949_35839">
<rect width="80" height="32" rx="5" fill="white"/>
</clipPath>
</defs>
</svg>
