<svg width="32" height="32" viewBox="0 0 32 32" fill="none" xmlns="http://www.w3.org/2000/svg">
<path d="M17.5 10.5C17.5 11.3284 16.8284 12 16 12C15.1716 12 14.5 11.3284 14.5 10.5C14.5 9.67157 15.1716 9 16 9C16.2724 9 16.2851 9.18545 16.3008 9.41493C16.314 9.60673 16.3293 9.82927 16.5 10C16.6726 10.1726 16.8982 10.1929 17.0915 10.2102C17.318 10.2305 17.5 10.2469 17.5 10.5Z" fill="white"/>
<path fill-rule="evenodd" clip-rule="evenodd" d="M16 15C19.9375 15 23 12 23 10.5C23 9 20.375 6 16 6C11.625 6 9 9 9 10.5C9 12 12.0625 15 16 15ZM20.962 10.4674C20.9371 10.413 20.8977 10.3373 20.8361 10.2408C20.6562 9.95934 20.3522 9.60865 19.9113 9.2651C19.0392 8.58548 17.717 8 16 8C14.283 8 12.9608 8.58548 12.0887 9.2651C11.6478 9.60865 11.3438 9.95934 11.1639 10.2408C11.1023 10.3373 11.0629 10.413 11.038 10.4674C11.0658 10.5189 11.1082 10.5897 11.1721 10.6799C11.3824 10.9768 11.7324 11.3465 12.2187 11.7089C13.1954 12.4369 14.5357 13 16 13C17.4643 13 18.8046 12.4369 19.7813 11.7089C20.2676 11.3465 20.6176 10.9768 20.8279 10.6799C20.8918 10.5897 20.9342 10.5189 20.962 10.4674Z" fill="white"/>
<path d="M20.1073 22.91L18.7773 23.62C19.2773 24.51 20.2173 25.1 21.3973 25.1C22.8873 25.1 24.0773 24.04 24.0773 22.61C24.0773 21.55 23.4673 20.76 22.6173 20.42L23.9273 19V18H19.2273V19.45H21.6373L20.4273 20.75V21.69C20.7173 21.59 20.9873 21.5 21.2873 21.5C21.8673 21.5 22.3973 21.88 22.3973 22.52C22.3973 23.12 21.9273 23.57 21.3473 23.57C20.8173 23.57 20.3573 23.32 20.1073 22.91Z" fill="white"/>
<path d="M12.7227 23.62L14.0527 22.91C14.3027 23.32 14.7627 23.57 15.2927 23.57C15.8727 23.57 16.3427 23.12 16.3427 22.52C16.3427 21.88 15.8127 21.5 15.2327 21.5C14.9327 21.5 14.6627 21.59 14.3727 21.69V20.75L15.5827 19.45H13.1727V18H17.8727V19L16.5627 20.42C17.4127 20.76 18.0227 21.55 18.0227 22.61C18.0227 24.04 16.8327 25.1 15.3427 25.1C14.1627 25.1 13.2227 24.51 12.7227 23.62Z" fill="white"/>
<path d="M7.99797 22.91L6.66797 23.62C7.16797 24.51 8.10797 25.1 9.28797 25.1C10.778 25.1 11.968 24.04 11.968 22.61C11.968 21.55 11.358 20.76 10.508 20.42L11.818 19V18H7.11797V19.45H9.52797L8.31797 20.75V21.69C8.60797 21.59 8.87797 21.5 9.17797 21.5C9.75797 21.5 10.288 21.88 10.288 22.52C10.288 23.12 9.81797 23.57 9.23797 23.57C8.70797 23.57 8.24797 23.32 7.99797 22.91Z" fill="white"/>
</svg>
