<svg width="32" height="32" viewBox="0 0 32 32" fill="none" xmlns="http://www.w3.org/2000/svg">
<path fill-rule="evenodd" clip-rule="evenodd" d="M10 9C10 7.34315 11.3431 6 13 6C14.6569 6 16 7.34315 16 9C16 10.6569 14.6569 12 13 12C11.3431 12 10 10.6569 10 9ZM13 4C10.2386 4 8 6.23858 8 9C8 11.7614 10.2386 14 13 14C15.7614 14 18 11.7614 18 9C18 6.23858 15.7614 4 13 4ZM6.07089 24C6.55612 20.6077 9.47353 18 13 18C13.0169 18 13.0337 17.9996 13.0504 17.9988C13.0671 17.9996 13.0839 18 13.1008 18C13.9974 18 14.8524 18.1681 15.6377 18.4736C16.1524 18.6738 16.7319 18.4189 16.9322 17.9042C17.1324 17.3894 16.8775 16.8099 16.3628 16.6096C15.3501 16.2157 14.2494 16 13.1008 16C13.0839 16 13.0671 16.0004 13.0504 16.0012C13.0337 16.0004 13.0169 16 13 16C8.02944 16 4 20.0294 4 25C4 25.5523 4.44772 26 5 26H13C13.5523 26 14 25.5523 14 25C14 24.4477 13.5523 24 13 24H6.07089ZM18.0049 22.9885C18.0171 23.0211 18.0568 23.1208 18.1823 23.2862C18.3577 23.5173 18.638 23.791 19.0162 24.0541C19.7732 24.5809 20.8272 25 21.999 25C23.1708 25 24.2248 24.5809 24.9819 24.0541C25.36 23.791 25.6403 23.5173 25.8158 23.2862C25.9412 23.1208 25.9809 23.0211 25.9931 22.9885C25.9821 22.9494 25.9465 22.8428 25.8311 22.6742C25.6788 22.4517 25.4311 22.1877 25.0819 21.9337C24.3885 21.4293 23.3436 21 21.999 21C20.6545 21 19.6095 21.4293 18.9161 21.9337C18.5669 22.1877 18.3192 22.4517 18.167 22.6742C18.0516 22.8428 18.0159 22.9494 18.0049 22.9885ZM17.7396 20.3163C18.7646 19.5707 20.2192 19 21.999 19C23.7789 19 25.2334 19.5707 26.2584 20.3163C26.7685 20.6873 27.1847 21.1108 27.4816 21.5446C27.764 21.9574 27.998 22.4681 27.998 23C27.998 23.5727 27.7085 24.1003 27.409 24.4951C27.0865 24.9202 26.6443 25.334 26.1242 25.6959C25.0847 26.4191 23.6392 27 21.999 27C20.3589 27 18.9134 26.4191 17.8739 25.6959C17.3538 25.334 16.9116 24.9202 16.589 24.4951C16.2895 24.1003 16 23.5727 16 23C16 22.4681 16.234 21.9574 16.5165 21.5446C16.8134 21.1108 17.2296 20.6873 17.7396 20.3163ZM22.4943 24.4329C23.1728 24.2429 23.6654 23.6733 23.6654 23C23.6654 22.7469 23.4631 22.7305 23.2115 22.7102C23.1846 22.708 23.1572 22.7058 23.1294 22.7033C22.935 22.6854 22.7221 22.651 22.5543 22.5C22.3646 22.3292 22.3476 22.1066 22.333 21.9148C22.3155 21.6852 22.3013 21.4998 21.9987 21.4998C21.2971 21.4998 20.6968 21.89 20.4509 22.4425C20.4445 22.457 20.4383 22.4716 20.4323 22.4863C20.4314 22.4886 20.4305 22.4908 20.4296 22.4931C20.417 22.5247 20.4055 22.5568 20.3953 22.5893C20.3541 22.7199 20.332 22.8576 20.332 23C20.332 23.8286 21.0782 24.5003 21.9987 24.5003C22.0024 24.5003 22.0061 24.5003 22.0098 24.5003C22.026 24.5002 22.0421 24.4999 22.0582 24.4994C22.067 24.4991 22.0757 24.4988 22.0845 24.4984C22.2101 24.4927 22.3321 24.4744 22.4489 24.445C22.4489 24.445 22.4489 24.445 22.4489 24.445C22.4641 24.4411 22.4793 24.4371 22.4943 24.4329Z" fill="white"/>
</svg>
