<svg width="32" height="32" viewBox="0 0 32 32" fill="none" xmlns="http://www.w3.org/2000/svg">
<path fill-rule="evenodd" clip-rule="evenodd" d="M18.9997 10.0322C18.0234 10.0322 17.0871 10.4201 16.3968 11.1104C15.7065 11.8007 15.3187 12.737 15.3187 13.7132C15.3187 14.6895 15.7065 15.6258 16.3968 16.3161C17.0871 17.0064 18.0234 17.3942 18.9997 17.3942C19.9759 17.3942 20.9122 17.0064 21.6025 16.3161C22.2928 15.6258 22.6806 14.6895 22.6806 13.7132C22.6806 12.737 22.2928 11.8007 21.6025 11.1104C20.9122 10.4201 19.9759 10.0322 18.9997 10.0322ZM18.9997 12.0322C18.5538 12.0322 18.1263 12.2093 17.811 12.5246C17.4958 12.8398 17.3187 13.2674 17.3187 13.7132C17.3187 14.1591 17.4958 14.5866 17.811 14.9019C18.1263 15.2171 18.5538 15.3942 18.9997 15.3942C19.4455 15.3942 19.873 15.2171 20.1883 14.9019C20.5035 14.5866 20.6806 14.1591 20.6806 13.7132C20.6806 13.2674 20.5035 12.8398 20.1883 12.5246C19.873 12.2093 19.4455 12.0322 18.9997 12.0322Z" fill="white"/>
<path d="M7.47554 17.4261C8.64906 16.9267 9.95849 16.8641 11.1734 17.25C13.5637 18.0092 15.2784 20.5101 14.9613 23.1213C14.6423 25.749 12.4657 27.8472 9.85922 27.9932C8.52903 28.0677 7.44222 27.5227 6.6998 26.968C5.96957 26.4224 5.47836 25.7981 5.31054 25.512C5.0311 25.0356 5.19075 24.4229 5.66713 24.1435C6.1435 23.864 6.75621 24.0237 7.03565 24.5001C7.03988 24.5065 7.05893 24.5354 7.0965 24.5846C7.14017 24.6419 7.20097 24.7164 7.27794 24.8015C7.43271 24.9727 7.64259 25.1758 7.89693 25.3658C8.41289 25.7514 9.04434 26.0357 9.74738 25.9963C11.3508 25.9065 12.7693 24.5821 12.9759 22.8803C13.173 21.2571 12.0746 19.6347 10.5679 19.1561C9.80954 18.9152 8.99276 18.954 8.25874 19.2664C8.06856 19.3473 7.88886 19.4539 7.71945 19.5842C8.00955 19.6959 8.24153 19.9434 8.32151 20.2707C8.4526 20.8072 8.12557 21.3548 7.59107 21.4938L5.71097 21.9828C5.17647 22.1218 4.6369 21.7996 4.5058 21.2631L4.03185 19.3234C3.90075 18.7869 4.22778 18.2393 4.76228 18.1003C5.20926 17.9841 5.65978 18.1904 5.87201 18.5748C6.30753 18.1029 6.8359 17.6983 7.47554 17.4261Z" fill="white"/>
<path d="M18.4471 4.00001L18.45 4L19.5522 4C20.0237 4.0014 20.4837 4.14515 20.8721 4.41243C21.2602 4.67946 21.5586 5.05736 21.7284 5.49669L22.1772 6.65525L23.5247 7.43054L24.7604 7.24204L24.7767 7.23969C25.2366 7.17727 25.7047 7.25297 26.1214 7.45717C26.5381 7.66138 26.8848 7.98487 27.1172 8.38653L27.12 8.3913L27.6536 9.32506C27.891 9.73173 28.0003 10.2006 27.967 10.6704C27.9337 11.1412 27.7588 11.5909 27.4654 11.9604L27.4628 11.9638L26.7021 12.9328V14.4863L27.4896 15.4627C27.7846 15.8329 27.9604 16.2838 27.9938 16.756C28.0271 17.2258 27.9178 17.6947 27.6804 18.1013L27.1468 19.0352L27.144 19.0399C26.9116 19.4416 26.5649 19.7651 26.1482 19.9693C25.7315 20.1735 25.2634 20.2492 24.8036 20.1868L24.7873 20.1844L23.5515 19.9959L22.204 20.7712L21.7557 21.9285L21.7552 21.9298C21.5854 22.3693 21.2866 22.7482 20.8985 23.0153C20.5101 23.2825 20.05 23.4263 19.5785 23.4277L19.5756 23.4277L18.4734 23.4277C18.002 23.4263 17.5419 23.2825 17.1535 23.0153C16.7655 22.7482 16.4997 22.5 16.2972 21.931C16.2972 21.931 16.1796 21.3169 16.9995 21C17.6924 20.7322 18.1364 21.2085 18.1364 21.2085C18.1611 21.2725 18.2046 21.3276 18.2611 21.3665C18.3173 21.4052 18.3839 21.4261 18.4521 21.4265H19.574C19.6423 21.4261 19.7089 21.4052 19.7651 21.3665C19.8216 21.3276 19.8651 21.2725 19.8898 21.2085L19.8902 21.2073L20.4667 19.7194C20.5492 19.5062 20.7023 19.3278 20.9004 19.2138L22.8576 18.0878C23.054 17.9748 23.283 17.9318 23.5071 17.966L25.078 18.2056C25.1432 18.2134 25.2092 18.2022 25.2682 18.1733C25.3283 18.1439 25.3783 18.0974 25.4121 18.0397L25.9527 17.0939C25.9876 17.0345 26.0037 16.966 25.9988 16.8973C25.994 16.8292 25.9688 16.7642 25.9266 16.7106L24.9237 15.467C24.7803 15.2892 24.7021 15.0677 24.7021 14.8393V12.5872C24.7021 12.3633 24.7773 12.1459 24.9155 11.9698L25.8986 10.7174C25.9416 10.6635 25.9671 10.5979 25.972 10.5292C25.9769 10.4605 25.9608 10.392 25.9259 10.3326L25.9197 10.3219L25.3853 9.38674C25.3515 9.32905 25.3014 9.28259 25.2414 9.25315C25.1824 9.22426 25.1163 9.21305 25.0512 9.22082L23.4803 9.46045C23.2562 9.49463 23.0272 9.45169 22.8308 9.33867L20.8736 8.21265C20.6755 8.09866 20.5224 7.92024 20.4399 7.7071L19.863 6.21792C19.8383 6.15393 19.7948 6.09888 19.7383 6.06C19.6821 6.0213 19.6155 6.0004 19.5473 6H18.452C18.3838 6.0004 18.3172 6.0213 18.261 6.06C18.2045 6.09888 18.161 6.15393 18.1363 6.21792L17.5594 7.7071C17.4762 7.92212 17.3211 8.10174 17.1206 8.21556L15.1366 9.34158C14.9413 9.45245 14.7143 9.49433 14.4922 9.46045L12.9213 9.22082C12.8561 9.21305 12.7901 9.22426 12.7311 9.25315C12.671 9.28259 12.621 9.32908 12.5872 9.38678L12.0467 10.3326C12.0118 10.392 11.9956 10.4605 12.0005 10.5292C12.0053 10.5972 12.0305 10.6623 12.0726 10.7158L13.0756 11.9595C13.219 12.1373 13.2972 12.3588 13.2972 12.5872V14.8393C13.2972 15.3915 12.8495 15.8393 12.2972 15.8393C11.7449 15.8393 11.2972 15.3915 11.2972 14.8393V12.9402L10.5097 11.9638C10.2147 11.5936 10.0389 11.1426 10.0055 10.6704C9.97223 10.2006 10.0815 9.73171 10.3189 9.32505L10.8552 8.38652C11.0877 7.98486 11.4344 7.66138 11.8511 7.45717C12.2678 7.25297 12.7359 7.17727 13.1958 7.23969L13.212 7.24204L14.451 7.43103L15.8233 6.65218L16.2704 5.49793C16.4402 5.05845 16.739 4.67953 17.1272 4.41243C17.5156 4.14515 17.9756 4.0014 18.4471 4.00001Z" fill="white"/>
</svg>
